# xmcd
#
# Track frame offsets:
#	150
#	15361
#	29480
#	46037
#	63519
#	78966
#	94452
#	108764
#	127521
#	146198
#	160875
#	174736
#	188220
#	203175
#	218584
#	231328
#	245301
#	258777
#
# Disc length: 3646 seconds
#
# Revision: 1
# Processed by: cddbd v1.5.2PL0 Copyright (c) Steve Scherf et al.
# Submitted via: audiograbber 1.82.02
#
DISCID=ea0e3c12
DTITLE=Various Artist - Country Radio - June 2014
DYEAR=2014
DGENRE=Country
TTITLE0=Dustin Lynch - Where It's At
TTITLE1=Blake Shelton (Ft. Gwen Sebastian) - My Eyes
TTITLE2=Danielle Bradbery - Young In America
TTITLE3=Ryan Kinder - Kiss Me When I'm Down
TTITLE4=David Fanning - Drink You Away
TTITLE5=John King - Tonight Tonight
TTITLE6=Thompson Square - Testing The Water
TTITLE7=Dierks Bentley - Drunk On A Plane
TTITLE8=Dierks Bentley - Drunk On A Plane (Yeah Ver)
TTITLE9=Kip Moore - Dirt Road
TTITLE10=Leah Turner - Pull Me Back
TTITLE11=Frankie Ballard - Sunshine and Whiskey
TTITLE12=Chelsea Bain - Cowboy In A Cadillac
TTITLE13=Sarah Davidson - Drink You Up
TTITLE14=Carissa Leigh - Bad Boy
TTITLE15=Josh Thompson - Wanted Me Gone
TTITLE16=Brad Paisley - River Bank
TTITLE17=Scotty McCreery - Feelin' It
EXTD=
EXTT0=
EXTT1=
EXTT2=
EXTT3=
EXTT4=
EXTT5=
EXTT6=
EXTT7=
EXTT8=
EXTT9=
EXTT10=
EXTT11=
EXTT12=
EXTT13=
EXTT14=
EXTT15=
EXTT16=
EXTT17=
PLAYORDER=
